<svg xmlns="http://www.w3.org/2000/svg" viewBox="0 0 64 64" width="64" height="64" role="img" aria-label="Palimpsest mark">
  
  <defs>
    <linearGradient id="m-paper" x1="0" y1="0" x2="1" y2="1">
      <stop offset="0" stop-color="#f6eedd"></stop>
      <stop offset="1" stop-color="#e7d8b3"></stop>
    </linearGradient>
    <linearGradient id="m-term" x1="0" y1="0" x2="0" y2="1">
      <stop offset="0" stop-color="#5c7bff"></stop>
      <stop offset="1" stop-color="#2b3e9e"></stop>
    </linearGradient>
  </defs>

  
  <g transform="translate(8 9) rotate(-4 22 22)">
    <rect x="0" y="0" width="36" height="44" rx="1.5" fill="#e7d8b3" stroke="#8a5a1f" stroke-width="1" opacity="0.7"></rect>
  </g>

  
  <g transform="translate(11 8)">
    <rect x="0" y="0" width="36" height="46" rx="1.5" fill="url(#m-paper)" stroke="#8a5a1f" stroke-width="1.2"></rect>
    
    <rect x="6" y="3" width="1.6" height="40" fill="#b34a3a"></rect>
    
    <g stroke="#9b8e6f" stroke-width="0.7" stroke-linecap="round" opacity="0.85">
      <line x1="11" y1="9" x2="30" y2="9"></line>
      <line x1="11" y1="14" x2="28" y2="14"></line>
      <line x1="11" y1="19" x2="30" y2="19"></line>
      <line x1="11" y1="24" x2="27" y2="24"></line>
      <line x1="11" y1="29" x2="29" y2="29"></line>
    </g>
    
    <path d="M 31 0 L 36 0 L 36 5 Z" fill="#d8c48d" stroke="#8a5a1f" stroke-width="0.8"></path>
    <path d="M 31 0 L 36 5" stroke="#8a5a1f" stroke-width="0.8" fill="none"></path>
  </g>

  
  <g transform="translate(32 30)">
    <rect x="0" y="0" width="22" height="22" rx="1.5" fill="url(#m-term)" stroke="#0e1530" stroke-width="1.2"></rect>
    
    <rect x="-1" y="-1" width="24" height="24" rx="2.5" fill="none" stroke="#8aa6ff" stroke-width="0.6" opacity="0.5"></rect>
    
    <rect x="6" y="6" width="4" height="10" fill="#6fcf97"></rect>
    
    <line x1="2" y1="4" x2="20" y2="4" stroke="#e3e7f5" stroke-width="0.4" opacity="0.55"></line>
    <line x1="2" y1="19" x2="20" y2="19" stroke="#e3e7f5" stroke-width="0.4" opacity="0.55"></line>
  </g>
</svg>