<svg xmlns="http://www.w3.org/2000/svg" viewBox="0 0 1200 630">
  <rect width="1200" height="630" fill="#f1e7d0"></rect>
  <rect x="0" y="0" width="1200" height="630" fill="rgba(120,90,40,0.022)"></rect>
  <rect x="92" y="0" width="2" height="630" fill="#b34a3a" opacity="0.85"></rect>
  <g stroke="rgba(91,79,58,0.14)" stroke-width="1">
    <line x1="0" y1="8" x2="1200" y2="8"></line><line x1="0" y1="36" x2="1200" y2="36"></line><line x1="0" y1="64" x2="1200" y2="64"></line><line x1="0" y1="92" x2="1200" y2="92"></line><line x1="0" y1="120" x2="1200" y2="120"></line><line x1="0" y1="148" x2="1200" y2="148"></line><line x1="0" y1="176" x2="1200" y2="176"></line><line x1="0" y1="204" x2="1200" y2="204"></line><line x1="0" y1="232" x2="1200" y2="232"></line><line x1="0" y1="260" x2="1200" y2="260"></line><line x1="0" y1="288" x2="1200" y2="288"></line><line x1="0" y1="316" x2="1200" y2="316"></line><line x1="0" y1="344" x2="1200" y2="344"></line><line x1="0" y1="372" x2="1200" y2="372"></line><line x1="0" y1="400" x2="1200" y2="400"></line><line x1="0" y1="428" x2="1200" y2="428"></line><line x1="0" y1="456" x2="1200" y2="456"></line><line x1="0" y1="484" x2="1200" y2="484"></line><line x1="0" y1="512" x2="1200" y2="512"></line><line x1="0" y1="540" x2="1200" y2="540"></line><line x1="0" y1="568" x2="1200" y2="568"></line><line x1="0" y1="596" x2="1200" y2="596"></line>
  </g>

  <g transform="translate(140 180)">
    <g transform="rotate(-4 60 60)">
      <rect x="8" y="6" width="110" height="138" rx="3" fill="#e7d8b3" stroke="#8a5a1f" stroke-width="2" opacity="0.75"></rect>
    </g>
    <rect x="0" y="0" width="110" height="142" rx="3" fill="#f6eedd" stroke="#8a5a1f" stroke-width="2.4"></rect>
    <rect x="18" y="12" width="4" height="118" fill="#b34a3a"></rect>
    <g stroke="#5b4f3a" stroke-width="1.6" stroke-linecap="round" opacity="0.85">
      <line x1="32" y1="28" x2="94" y2="28"></line>
      <line x1="32" y1="42" x2="84" y2="42"></line>
      <line x1="32" y1="56" x2="96" y2="56"></line>
      <line x1="32" y1="70" x2="82" y2="70"></line>
      <line x1="32" y1="84" x2="94" y2="84"></line>
    </g>
    <path d="M 94 0 L 110 0 L 110 16 Z" fill="#d8c48d" stroke="#8a5a1f" stroke-width="1.4"></path>
    <path d="M 94 0 L 110 16" stroke="#8a5a1f" stroke-width="1.4" fill="none"></path>
    <g transform="translate(70 92)">
      <rect x="0" y="0" width="74" height="74" rx="4" fill="#3b54cf" stroke="#0e1530" stroke-width="2.4"></rect>
      <rect x="-3" y="-3" width="80" height="80" rx="5" fill="none" stroke="#8aa6ff" stroke-width="1.2" opacity="0.55"></rect>
      <rect x="20" y="20" width="10" height="32" fill="#6fcf97"></rect>
    </g>
  </g>

  <g transform="translate(320 270)">
    <text x="0" y="0" font-family="&#39;JetBrains Mono&#39;, ui-monospace, monospace" font-weight="700" font-size="92" fill="#b34a3a">//</text>
    <text x="130" y="0" font-family="&#39;JetBrains Mono&#39;, ui-monospace, monospace" font-weight="700" font-size="92" letter-spacing="-1" fill="#1a1812">Palimpsest</text>
  </g>
  <text x="320" y="340" font-family="&#39;Spectral&#39;, Georgia, serif" font-style="italic" font-weight="500" font-size="32" fill="#1a1812">Drop your old scan, get a clean scientific document back.</text>
  <text x="320" y="420" font-family="&#39;JetBrains Mono&#39;, ui-monospace, monospace" font-weight="500" font-size="16" letter-spacing="3.6" fill="#5b4f3a">SCAN <tspan fill="#b34a3a">→</tspan> OCR <tspan fill="#b34a3a">→</tspan> LLM <tspan fill="#b34a3a">→</tspan> LATEX</text>

  <text x="1100" y="60" text-anchor="end" font-family="&#39;JetBrains Mono&#39;, ui-monospace, monospace" font-size="14" letter-spacing="2.4" fill="#9b8e6f">MS · 2026 / VOL. III</text>
  <text x="140" y="570" font-family="&#39;JetBrains Mono&#39;, ui-monospace, monospace" font-size="13" letter-spacing="2.2" fill="#9b8e6f">made with ♥ by @cmrabdu · open source</text>
</svg>